<mxfile host="app.diagrams.net" modified="2023-12-12T16:27:53.050Z" agent="Mozilla/5.0 (X11; Linux x86_64) AppleWebKit/537.36 (KHTML, like Gecko) Chrome/118.0.0.0 Safari/537.36" etag="t6_uN5nVUPvbN3j9MJz3" version="22.1.7" type="device">
  <diagram name="Page-1" id="QyzKNtlSIRdPTUQqC0iU">
    <mxGraphModel dx="1434" dy="772" grid="1" gridSize="10" guides="1" tooltips="1" connect="1" arrows="1" fold="1" page="1" pageScale="1" pageWidth="827" pageHeight="1169" math="0" shadow="0">
      <root>
        <mxCell id="0" />
        <mxCell id="1" parent="0" />
        <mxCell id="A3S0Ju1kc4Om5DbBwdS7-1" value="q0" style="ellipse;whiteSpace=wrap;html=1;aspect=fixed;fillColor=none;fontSize=16;" parent="1" vertex="1">
          <mxGeometry x="120" y="360" width="80" height="80" as="geometry" />
        </mxCell>
        <mxCell id="A3S0Ju1kc4Om5DbBwdS7-2" value="" style="endArrow=classic;html=1;rounded=0;entryX=0;entryY=0.5;entryDx=0;entryDy=0;" parent="1" target="A3S0Ju1kc4Om5DbBwdS7-1" edge="1">
          <mxGeometry width="50" height="50" relative="1" as="geometry">
            <mxPoint x="40" y="400" as="sourcePoint" />
            <mxPoint x="440" y="370" as="targetPoint" />
          </mxGeometry>
        </mxCell>
        <mxCell id="A3S0Ju1kc4Om5DbBwdS7-3" value="q1" style="ellipse;whiteSpace=wrap;html=1;aspect=fixed;fillColor=none;fontSize=16;" parent="1" vertex="1">
          <mxGeometry x="280" y="360" width="80" height="80" as="geometry" />
        </mxCell>
        <mxCell id="A3S0Ju1kc4Om5DbBwdS7-4" value="q2" style="ellipse;whiteSpace=wrap;html=1;aspect=fixed;fillColor=none;fontSize=16;" parent="1" vertex="1">
          <mxGeometry x="440" y="360" width="80" height="80" as="geometry" />
        </mxCell>
        <mxCell id="A3S0Ju1kc4Om5DbBwdS7-5" value="q3" style="ellipse;whiteSpace=wrap;html=1;aspect=fixed;fillColor=none;fontSize=16;" parent="1" vertex="1">
          <mxGeometry x="600" y="360" width="80" height="80" as="geometry" />
        </mxCell>
        <mxCell id="A3S0Ju1kc4Om5DbBwdS7-6" value="*" style="endArrow=classic;html=1;exitX=1;exitY=0.5;exitDx=0;exitDy=0;entryX=0;entryY=0.5;entryDx=0;entryDy=0;curved=1;fontSize=16;labelPosition=center;verticalLabelPosition=top;align=center;verticalAlign=bottom;" parent="1" source="A3S0Ju1kc4Om5DbBwdS7-3" target="A3S0Ju1kc4Om5DbBwdS7-4" edge="1">
          <mxGeometry width="50" height="50" relative="1" as="geometry">
            <mxPoint x="390" y="420" as="sourcePoint" />
            <mxPoint x="440" y="370" as="targetPoint" />
          </mxGeometry>
        </mxCell>
        <mxCell id="A3S0Ju1kc4Om5DbBwdS7-7" value="/" style="endArrow=classic;html=1;exitX=1;exitY=0;exitDx=0;exitDy=0;entryX=0;entryY=0;entryDx=0;entryDy=0;curved=1;fontSize=16;labelPosition=center;verticalLabelPosition=top;align=center;verticalAlign=bottom;" parent="1" source="A3S0Ju1kc4Om5DbBwdS7-1" target="A3S0Ju1kc4Om5DbBwdS7-3" edge="1">
          <mxGeometry width="50" height="50" relative="1" as="geometry">
            <mxPoint x="390" y="420" as="sourcePoint" />
            <mxPoint x="440" y="370" as="targetPoint" />
            <Array as="points">
              <mxPoint x="240" y="350" />
            </Array>
          </mxGeometry>
        </mxCell>
        <mxCell id="A3S0Ju1kc4Om5DbBwdS7-8" value="*" style="endArrow=classic;html=1;exitX=1;exitY=0;exitDx=0;exitDy=0;entryX=0;entryY=0;entryDx=0;entryDy=0;curved=1;fontSize=16;labelPosition=center;verticalLabelPosition=top;align=center;verticalAlign=bottom;" parent="1" source="A3S0Ju1kc4Om5DbBwdS7-4" target="A3S0Ju1kc4Om5DbBwdS7-5" edge="1">
          <mxGeometry width="50" height="50" relative="1" as="geometry">
            <mxPoint x="390" y="420" as="sourcePoint" />
            <mxPoint x="440" y="370" as="targetPoint" />
            <Array as="points">
              <mxPoint x="560" y="350" />
            </Array>
          </mxGeometry>
        </mxCell>
        <mxCell id="A3S0Ju1kc4Om5DbBwdS7-9" value="a" style="endArrow=classic;html=1;exitX=0;exitY=1;exitDx=0;exitDy=0;entryX=1;entryY=1;entryDx=0;entryDy=0;curved=1;fontSize=16;labelPosition=center;verticalLabelPosition=bottom;align=center;verticalAlign=top;" parent="1" source="A3S0Ju1kc4Om5DbBwdS7-3" target="A3S0Ju1kc4Om5DbBwdS7-1" edge="1">
          <mxGeometry width="50" height="50" relative="1" as="geometry">
            <mxPoint x="390" y="420" as="sourcePoint" />
            <mxPoint x="440" y="370" as="targetPoint" />
            <Array as="points">
              <mxPoint x="240" y="450" />
            </Array>
          </mxGeometry>
        </mxCell>
        <mxCell id="A3S0Ju1kc4Om5DbBwdS7-10" value="a" style="endArrow=classic;html=1;exitX=0;exitY=1;exitDx=0;exitDy=0;entryX=1;entryY=1;entryDx=0;entryDy=0;curved=1;fontSize=16;labelPosition=center;verticalLabelPosition=bottom;align=center;verticalAlign=top;" parent="1" source="A3S0Ju1kc4Om5DbBwdS7-5" target="A3S0Ju1kc4Om5DbBwdS7-4" edge="1">
          <mxGeometry width="50" height="50" relative="1" as="geometry">
            <mxPoint x="390" y="420" as="sourcePoint" />
            <mxPoint x="440" y="370" as="targetPoint" />
            <Array as="points">
              <mxPoint x="560" y="450" />
            </Array>
          </mxGeometry>
        </mxCell>
        <mxCell id="A3S0Ju1kc4Om5DbBwdS7-11" value="" style="edgeStyle=orthogonalEdgeStyle;orthogonalLoop=1;jettySize=auto;html=1;exitX=0;exitY=1;exitDx=0;exitDy=0;curved=1;entryX=0.5;entryY=1;entryDx=0;entryDy=0;fontSize=16;labelPosition=right;verticalLabelPosition=middle;align=left;verticalAlign=middle;" parent="1" edge="1">
          <mxGeometry relative="1" as="geometry">
            <mxPoint x="159.97000000000003" y="442" as="targetPoint" />
            <Array as="points">
              <mxPoint x="99.97000000000003" y="430" />
              <mxPoint x="99.97000000000003" y="492" />
              <mxPoint x="159.97000000000003" y="492" />
            </Array>
            <mxPoint x="131.97000000000003" y="430" as="sourcePoint" />
          </mxGeometry>
        </mxCell>
        <mxCell id="A3S0Ju1kc4Om5DbBwdS7-12" value="" style="edgeStyle=orthogonalEdgeStyle;orthogonalLoop=1;jettySize=auto;html=1;exitX=1;exitY=1;exitDx=0;exitDy=0;curved=1;entryX=0.5;entryY=1;entryDx=0;entryDy=0;fontSize=16;labelPosition=left;verticalLabelPosition=middle;align=right;verticalAlign=middle;" parent="1" edge="1">
          <mxGeometry relative="1" as="geometry">
            <mxPoint x="640.03" y="442" as="targetPoint" />
            <Array as="points">
              <mxPoint x="700.03" y="430" />
              <mxPoint x="700.03" y="492" />
              <mxPoint x="640.03" y="492" />
            </Array>
            <mxPoint x="668.03" y="430" as="sourcePoint" />
          </mxGeometry>
        </mxCell>
        <mxCell id="A3S0Ju1kc4Om5DbBwdS7-13" value="" style="edgeStyle=orthogonalEdgeStyle;orthogonalLoop=1;jettySize=auto;html=1;exitX=1;exitY=1;exitDx=0;exitDy=0;curved=1;entryX=0.5;entryY=1;entryDx=0;entryDy=0;fontSize=16;labelPosition=left;verticalLabelPosition=middle;align=right;verticalAlign=middle;" parent="1" edge="1">
          <mxGeometry relative="1" as="geometry">
            <mxPoint x="320.05999999999995" y="442" as="targetPoint" />
            <Array as="points">
              <mxPoint x="380.05999999999995" y="430" />
              <mxPoint x="380.05999999999995" y="492" />
              <mxPoint x="320.05999999999995" y="492" />
            </Array>
            <mxPoint x="348.05999999999995" y="430" as="sourcePoint" />
          </mxGeometry>
        </mxCell>
        <mxCell id="A3S0Ju1kc4Om5DbBwdS7-14" value="" style="edgeStyle=orthogonalEdgeStyle;orthogonalLoop=1;jettySize=auto;html=1;exitX=0;exitY=1;exitDx=0;exitDy=0;curved=1;entryX=0.5;entryY=1;entryDx=0;entryDy=0;fontSize=16;labelPosition=right;verticalLabelPosition=middle;align=left;verticalAlign=middle;" parent="1" edge="1">
          <mxGeometry relative="1" as="geometry">
            <mxPoint x="480" y="442" as="targetPoint" />
            <Array as="points">
              <mxPoint x="420" y="430" />
              <mxPoint x="420" y="492" />
              <mxPoint x="480" y="492" />
            </Array>
            <mxPoint x="452" y="430" as="sourcePoint" />
          </mxGeometry>
        </mxCell>
        <mxCell id="A3S0Ju1kc4Om5DbBwdS7-15" value="/" style="endArrow=classic;html=1;exitX=0.5;exitY=0;exitDx=0;exitDy=0;entryX=0.5;entryY=0;entryDx=0;entryDy=0;curved=1;fontSize=16;labelPosition=center;verticalLabelPosition=top;align=center;verticalAlign=bottom;" parent="1" source="A3S0Ju1kc4Om5DbBwdS7-5" target="A3S0Ju1kc4Om5DbBwdS7-1" edge="1">
          <mxGeometry width="50" height="50" relative="1" as="geometry">
            <mxPoint x="310" y="420" as="sourcePoint" />
            <mxPoint x="360" y="370" as="targetPoint" />
            <Array as="points">
              <mxPoint x="640" y="290" />
              <mxPoint x="160" y="290" />
            </Array>
          </mxGeometry>
        </mxCell>
        <mxCell id="A3S0Ju1kc4Om5DbBwdS7-16" value="" style="ellipse;whiteSpace=wrap;html=1;aspect=fixed;fillColor=none;" parent="1" vertex="1">
          <mxGeometry x="130" y="370" width="60" height="60" as="geometry" />
        </mxCell>
        <mxCell id="A3S0Ju1kc4Om5DbBwdS7-17" value="" style="ellipse;whiteSpace=wrap;html=1;aspect=fixed;fillColor=none;" parent="1" vertex="1">
          <mxGeometry x="290" y="370" width="60" height="60" as="geometry" />
        </mxCell>
        <mxCell id="A3S0Ju1kc4Om5DbBwdS7-18" value="a,*" style="text;html=1;strokeColor=none;fillColor=none;align=center;verticalAlign=middle;whiteSpace=wrap;rounded=0;fontSize=16;" parent="1" vertex="1">
          <mxGeometry x="98" y="451" width="60" height="30" as="geometry" />
        </mxCell>
        <mxCell id="A3S0Ju1kc4Om5DbBwdS7-19" value="/" style="text;html=1;strokeColor=none;fillColor=none;align=center;verticalAlign=middle;whiteSpace=wrap;rounded=0;fontSize=16;" parent="1" vertex="1">
          <mxGeometry x="324" y="451" width="60" height="30" as="geometry" />
        </mxCell>
        <mxCell id="A3S0Ju1kc4Om5DbBwdS7-20" value="a,/" style="text;html=1;strokeColor=none;fillColor=none;align=center;verticalAlign=middle;whiteSpace=wrap;rounded=0;fontSize=16;" parent="1" vertex="1">
          <mxGeometry x="418" y="451" width="60" height="30" as="geometry" />
        </mxCell>
        <mxCell id="A3S0Ju1kc4Om5DbBwdS7-21" value="*" style="text;html=1;strokeColor=none;fillColor=none;align=center;verticalAlign=middle;whiteSpace=wrap;rounded=0;fontSize=16;" parent="1" vertex="1">
          <mxGeometry x="645" y="455" width="60" height="30" as="geometry" />
        </mxCell>
        <mxCell id="71xWIPnRtPbfGSVtnk6w-1" value="" style="rounded=0;whiteSpace=wrap;html=1;fillColor=none;strokeColor=#ffffff;" vertex="1" parent="1">
          <mxGeometry x="10" y="240" width="730" height="290" as="geometry" />
        </mxCell>
      </root>
    </mxGraphModel>
  </diagram>
</mxfile>
